<?xml version="1.0" encoding="utf-8"?>
<!-- Generator: Adobe Illustrator 23.0.1, SVG Export Plug-In . SVG Version: 6.00 Build 0)  -->
<svg version="1.1" id="Layer_1" xmlns="http://www.w3.org/2000/svg" xmlns:xlink="http://www.w3.org/1999/xlink" x="0px" y="0px"
	 viewBox="0 0 1024 1024" style="enable-background:new 0 0 1024 1024;" xml:space="preserve">
<style type="text/css">
	.st0{fill:#FFFFFF;}
</style>
<rect class="st0" width="1024" height="1024"/>
<g>
	<path d="M0,343.23v36.95c0,13.39,10.85,24.24,24.24,24.24h46.29l27.1-70.97H9.77C4.38,333.46,0,337.84,0,343.23z"/>
	<path d="M1024,343.23v36.95c0,13.39-10.85,24.24-24.24,24.24h-46.29l-27.1-70.97h87.86C1019.62,333.46,1024,337.84,1024,343.23z"/>
	<path d="M148.74,863.74h72.67c22.45,0,40.65-18.2,40.65-40.65v-56.89c0-9.48-7.69-17.17-17.17-17.17H125.26
		c-9.48,0-17.17,7.69-17.17,17.17v56.89C108.09,845.55,126.29,863.74,148.74,863.74z"/>
	<path d="M875.26,863.74h-72.67c-22.45,0-40.65-18.2-40.65-40.65v-56.89c0-9.48,7.69-17.17,17.17-17.17h119.62
		c9.48,0,17.17,7.69,17.17,17.17v56.89C915.91,845.55,897.71,863.74,875.26,863.74z"/>
	<path d="M939.22,444.83l-76.61-200.61c-19.31-50.56-67.81-83.96-121.93-83.96H283.33c-54.12,0-102.63,33.4-121.94,83.96
		L84.78,444.83c-12.58,32.93-19.02,67.88-19.02,103.13v148.98c0,18.4,14.92,33.32,33.32,33.32h825.85
		c18.4,0,33.32-14.92,33.32-33.32V547.96C958.24,512.71,951.8,477.76,939.22,444.83z M318.35,609.81H159.44
		c-23.18,0-41.96-18.79-41.96-41.96v-24.19h158.91c23.18,0,41.96,18.79,41.96,41.96V609.81z M582.56,416.28H198.84
		c-21.28,0-36.14-21.07-29.01-41.12l31.78-89.3c14.74-41.41,51.76-68.76,93.06-68.76h434.65c41.31,0,78.33,27.36,93.06,68.76
		l31.78,89.3c7.14,20.05-7.73,41.12-29.01,41.12h-53.59h-28.99H611.55H582.56z M906.52,567.85c0,23.18-18.79,41.96-41.96,41.96
		H705.65v-24.19c0-23.18,18.79-41.96,41.96-41.96h158.91V567.85z"/>
	<path d="M677.07,362.11c32.57,0,59.61,23.33,65.52,54.18h28.99c-6.19-46.73-46.09-82.82-94.51-82.82s-88.32,36.09-94.51,82.82
		h28.99C617.46,385.44,644.5,362.11,677.07,362.11z"/>
</g>
</svg>
